<svg width="26" height="26" viewBox="0 0 26 26" fill="none" xmlns="http://www.w3.org/2000/svg">
<path d="M12.9999 14.0799C13.5963 14.0799 14.0799 13.5964 14.0799 12.9999C14.0799 12.4035 13.5963 11.9199 12.9999 11.9199C12.4034 11.9199 11.9199 12.4035 11.9199 12.9999C11.9199 13.5964 12.4034 14.0799 12.9999 14.0799Z" stroke="white" stroke-width="2" stroke-linecap="round" stroke-linejoin="round"/>
<path d="M20.5599 14.0799C21.1563 14.0799 21.6399 13.5964 21.6399 12.9999C21.6399 12.4035 21.1563 11.9199 20.5599 11.9199C19.9634 11.9199 19.4799 12.4035 19.4799 12.9999C19.4799 13.5964 19.9634 14.0799 20.5599 14.0799Z" stroke="white" stroke-width="2" stroke-linecap="round" stroke-linejoin="round"/>
<path d="M5.43986 14.0799C6.03633 14.0799 6.51986 13.5964 6.51986 12.9999C6.51986 12.4035 6.03633 11.9199 5.43986 11.9199C4.8434 11.9199 4.35986 12.4035 4.35986 12.9999C4.35986 13.5964 4.8434 14.0799 5.43986 14.0799Z" stroke="white" stroke-width="2" stroke-linecap="round" stroke-linejoin="round"/>
</svg>
