<svg width="34" height="34" viewBox="0 0 34 34" fill="none" xmlns="http://www.w3.org/2000/svg">
<path d="M14.6711 9.13664C14.7262 8.55698 14.9954 8.01868 15.4262 7.62692C15.8569 7.23515 16.4183 7.01807 17.0006 7.01807C17.5828 7.01807 18.1442 7.23515 18.575 7.62692C19.0057 8.01868 19.275 8.55698 19.3301 9.13664C19.3632 9.51109 19.486 9.87206 19.6882 10.189C19.8904 10.5059 20.1659 10.7694 20.4915 10.9573C20.8171 11.1452 21.1832 11.2518 21.5588 11.2683C21.9343 11.2847 22.3083 11.2104 22.6491 11.0516C23.1782 10.8114 23.7777 10.7767 24.3311 10.9541C24.8844 11.1316 25.3519 11.5086 25.6426 12.0117C25.9333 12.5149 26.0263 13.1082 25.9037 13.6762C25.7811 14.2442 25.4515 14.7463 24.9791 15.0846C24.6714 15.3005 24.4203 15.5872 24.247 15.9207C24.0736 16.2541 23.9831 16.6243 23.9831 17.0001C23.9831 17.3759 24.0736 17.7462 24.247 18.0796C24.4203 18.413 24.6714 18.6998 24.9791 18.9156C25.4515 19.254 25.7811 19.7561 25.9037 20.3241C26.0263 20.8921 25.9333 21.4854 25.6426 21.9885C25.3519 22.4917 24.8844 22.8687 24.3311 23.0462C23.7777 23.2236 23.1782 23.1889 22.6491 22.9486C22.3083 22.7899 21.9343 22.7156 21.5588 22.732C21.1832 22.7484 20.8171 22.8551 20.4915 23.043C20.1659 23.2308 19.8904 23.4944 19.6882 23.8113C19.486 24.1282 19.3632 24.4892 19.3301 24.8636C19.275 25.4433 19.0057 25.9816 18.575 26.3734C18.1442 26.7651 17.5828 26.9822 17.0006 26.9822C16.4183 26.9822 15.8569 26.7651 15.4262 26.3734C14.9954 25.9816 14.7262 25.4433 14.6711 24.8636C14.638 24.4891 14.5152 24.1279 14.3129 23.8109C14.1107 23.4939 13.835 23.2303 13.5093 23.0424C13.1836 22.8545 12.8173 22.7479 12.4416 22.7315C12.0659 22.7152 11.6919 22.7897 11.3511 22.9486C10.8219 23.1889 10.2224 23.2236 9.66906 23.0462C9.11573 22.8687 8.64823 22.4917 8.35754 21.9885C8.06685 21.4854 7.97377 20.8921 8.09642 20.3241C8.21907 19.7561 8.54866 19.254 9.02106 18.9156C9.32868 18.6998 9.57979 18.413 9.75315 18.0796C9.92651 17.7462 10.017 17.3759 10.017 17.0001C10.017 16.6243 9.92651 16.2541 9.75315 15.9207C9.57979 15.5872 9.32868 15.3005 9.02106 15.0846C8.54932 14.7461 8.22031 14.2442 8.09796 13.6766C7.97561 13.109 8.06867 12.5162 8.35904 12.0134C8.64942 11.5105 9.11637 11.1336 9.66915 10.9559C10.2219 10.7781 10.821 10.8123 11.3501 11.0516C11.6908 11.2104 12.0648 11.2847 12.4404 11.2683C12.8159 11.2518 13.182 11.1452 13.5076 10.9573C13.8332 10.7694 14.1088 10.5059 14.3109 10.189C14.5131 9.87206 14.6359 9.51109 14.6691 9.13664M20.0001 17.0006C20.0001 18.6575 18.6569 20.0006 17.0001 20.0006C15.3432 20.0006 14.0001 18.6575 14.0001 17.0006C14.0001 15.3438 15.3432 14.0006 17.0001 14.0006C18.6569 14.0006 20.0001 15.3438 20.0001 17.0006Z" stroke="white" stroke-width="2" stroke-linecap="round" stroke-linejoin="round"/>
</svg>
