<svg width="16" height="16" viewBox="0 0 16 16" fill="none" xmlns="http://www.w3.org/2000/svg">
<g clip-path="url(#clip0_1912_1115)">
<path d="M14.6668 8.00016C14.6668 11.6821 11.6821 14.6668 8.00016 14.6668M14.6668 8.00016C14.6668 4.31826 11.6821 1.3335 8.00016 1.3335M14.6668 8.00016H1.3335M8.00016 14.6668C4.31826 14.6668 1.3335 11.6821 1.3335 8.00016M8.00016 14.6668C6.28832 12.8694 5.3335 10.4823 5.3335 8.00016C5.3335 5.51799 6.28832 3.13093 8.00016 1.3335M8.00016 14.6668C9.71201 12.8694 10.6668 10.4823 10.6668 8.00016C10.6668 5.51799 9.71201 3.13093 8.00016 1.3335M1.3335 8.00016C1.3335 4.31826 4.31826 1.3335 8.00016 1.3335" stroke="#E0E0E0" stroke-width="2" stroke-linecap="round" stroke-linejoin="round"/>
</g>
<defs>
<clipPath id="clip0_1912_1115">
<rect width="16" height="16" fill="white"/>
</clipPath>
</defs>
</svg>
