<svg width="26" height="26" viewBox="0 0 26 26" fill="none" xmlns="http://www.w3.org/2000/svg">
<path d="M13 3.62524H5.70833C5.1558 3.62524 4.62589 3.84473 4.23519 4.23543C3.84449 4.62613 3.625 5.15603 3.625 5.70857V20.2919C3.625 20.8444 3.84449 21.3743 4.23519 21.765C4.62589 22.1557 5.1558 22.3752 5.70833 22.3752H20.2917C20.8442 22.3752 21.3741 22.1557 21.7648 21.765C22.1555 21.3743 22.375 20.8444 22.375 20.2919V13.0002M19.6406 3.23461C20.055 2.82021 20.6171 2.5874 21.2031 2.5874C21.7892 2.5874 22.3512 2.82021 22.7656 3.23461C23.18 3.64901 23.4128 4.21106 23.4128 4.79711C23.4128 5.38316 23.18 5.94521 22.7656 6.35961L13.3771 15.7492C13.1297 15.9963 12.8242 16.1772 12.4885 16.2752L9.49583 17.1502C9.4062 17.1764 9.31119 17.1779 9.22074 17.1548C9.13029 17.1316 9.04774 17.0845 8.98171 17.0185C8.91569 16.9525 8.86863 16.8699 8.84546 16.7795C8.82229 16.689 8.82386 16.594 8.85 16.5044L9.725 13.5117C9.82346 13.1763 10.0047 12.8711 10.2521 12.6242L19.6406 3.23461Z" stroke="#424769" stroke-width="2" stroke-linecap="round" stroke-linejoin="round"/>
</svg>
