<svg width="16" height="16" viewBox="0 0 16 16" fill="none" xmlns="http://www.w3.org/2000/svg">
<g clip-path="url(#clip0_521_69)">
<path d="M14.6665 8C14.6665 8.06315 14.6486 8.12499 14.6148 8.17834C14.581 8.23169 14.5328 8.27434 14.4757 8.30134L2.47569 13.968C2.41575 13.9971 2.34846 14.0074 2.28256 13.9977C2.21667 13.988 2.1552 13.9587 2.10617 13.9137C2.05714 13.8686 2.02279 13.8098 2.00761 13.7449C1.99243 13.6801 1.9971 13.6122 2.02102 13.55L3.91569 8.46534C4.02747 8.16518 4.02747 7.83482 3.91569 7.53467L2.02036 2.45C1.99631 2.38777 1.99158 2.31973 2.00677 2.25476C2.02196 2.18979 2.05638 2.1309 2.10553 2.08578C2.15468 2.04066 2.21629 2.01139 2.28232 2.0018C2.34834 1.99221 2.41573 2.00273 2.47569 2.032L14.4757 7.69867C14.5328 7.72567 14.581 7.76832 14.6148 7.82167C14.6486 7.87501 14.6665 7.93686 14.6665 8ZM14.6665 8H3.99969" stroke="#424769" stroke-width="2" stroke-linecap="round" stroke-linejoin="round"/>
</g>
<defs>
<clipPath id="clip0_521_69">
<path d="M0 8C0 3.58172 3.58172 0 8 0C12.4183 0 16 3.58172 16 8C16 12.4183 12.4183 16 8 16C3.58172 16 0 12.4183 0 8Z" fill="white"/>
</clipPath>
</defs>
</svg>
