<svg width="34" height="34" viewBox="0 0 34 34" fill="none" xmlns="http://www.w3.org/2000/svg">
<path d="M19.7 23.7502H7.54995M19.7 23.7502C19.7 25.9869 21.5132 27.8002 23.7499 27.8002C25.9867 27.8002 27.7999 25.9869 27.7999 23.7502C27.7999 21.5134 25.9867 19.7002 23.7499 19.7002C21.5132 19.7002 19.7 21.5134 19.7 23.7502ZM26.4499 10.2502H14.3M14.3 10.2502C14.3 12.4869 12.4867 14.3002 10.25 14.3002C8.0132 14.3002 6.19995 12.4869 6.19995 10.2502C6.19995 8.01344 8.0132 6.2002 10.25 6.2002C12.4867 6.2002 14.3 8.01344 14.3 10.2502Z" stroke="#E0E0E0" stroke-width="2" stroke-linecap="round" stroke-linejoin="round"/>
</svg>
