<svg width="164" height="156" viewBox="0 0 164 156" fill="none" xmlns="http://www.w3.org/2000/svg">
<path fill-rule="evenodd" clip-rule="evenodd" d="M114.674 66.2663C118.307 71.7343 120.681 74.5674 120.666 79.6404C120.654 83.6162 118.613 86.1851 116.847 89.0091C116.693 89.2551 116.664 89.2303 114.883 92.0631C113.129 94.8536 112.21 96.6936 108.619 98.4861C104.848 100.368 100.667 99.3499 99.9943 99.1859C97.2161 98.5094 97.2593 98.3571 65.4785 89.8988C62.1394 89.0098 59.7777 88.2368 55.3693 87.1408C50.8705 86.0221 48.8126 83.536 48.0292 82.5942C46.76 81.0691 45.5133 78.4791 45.4052 76.0021C45.3508 74.7566 45.4335 55.7541 45.3363 50.8463C45.2387 45.9003 45.5772 44.4992 45.7067 43.9634C47.1831 37.8564 52.5269 34.4744 58.231 34.342C58.7389 34.33 82.6042 34.303 84.7231 34.3548C88.7306 34.4521 93.1492 35.4705 96.6549 39.942C97.4357 40.9374 111.997 62.5161 114.674 66.2663Z" fill="#FCE15A"/>
<path fill-rule="evenodd" clip-rule="evenodd" d="M129.726 68.8892C128.256 68.6753 128.246 68.7391 126.841 68.251C123.29 67.018 121.656 64.9258 120.675 63.5783C119.865 62.4662 112.109 51.1249 111.367 50.0078C108.203 45.2483 108.131 45.3019 106.646 43.0865C101.026 34.7041 100.539 34.2146 99.7401 32.2004C97.3026 26.053 99.853 21.4995 101.614 17.2492C104.626 9.98027 105.662 7.09572 107.17 5.24851C110.678 0.951584 114.984 1.06129 117.015 1.04672C133.48 0.927164 133.493 1.09045 136.943 1.76585C142.415 2.83707 147.646 5.74129 150.814 8.49608C151.408 9.01256 158.101 14.4128 160.928 23.8701C163.056 30.986 162.541 32.476 162.668 49.753C162.671 50.1729 163.3 55.4743 159.002 59.1097C157.513 60.3694 156.192 61.0287 150.434 62.9889C135.451 68.0895 134.493 69.0634 129.726 68.8892Z" fill="#F84B88"/>
<path fill-rule="evenodd" clip-rule="evenodd" d="M157.311 68.1697C157.805 68.2579 159.928 68.4048 161.549 70.9496C162.838 72.9732 162.614 74.9072 162.611 77.8176C162.595 92.0654 162.919 95.3228 161.523 100.751C157.186 117.62 142.928 122.79 142.407 123.003C135.447 125.854 130.56 125.103 117.378 125.292C115.271 125.321 114.268 125.15 112.301 124.101C110.228 122.995 106.511 118.606 109.201 112.895C109.71 111.813 120.186 95.8568 127.118 85.0705C131.753 77.8581 133.297 75.7014 140.547 73.2849C141.131 73.0906 141.116 73.0716 147.795 70.7269C154.562 68.3519 154.945 67.9616 157.311 68.1697Z" fill="#F6B17A"/>
<path fill-rule="evenodd" clip-rule="evenodd" d="M30.6119 51.3746C32.2944 51.9855 37.1495 53.7219 38.6839 60.3137C39.0013 61.6772 38.9556 61.6951 38.9429 77.8185C38.9368 86.0493 39.0833 87.7204 36.7812 92.7376C36.1147 94.1904 30.9817 103.584 30.4686 104.523C30.3819 104.681 30.3946 104.685 29.4284 106.534C27.3933 110.43 26.931 110.993 26.6495 111.335C25.619 112.589 21.7179 116.147 15.7699 113.569C11.3039 111.633 8.52819 109.739 5.69484 105.835C3.34332 102.595 2.0999 97.9603 1.8568 96.0624C1.55347 93.6936 1.32779 93.6098 1.30965 88.0237C1.27046 75.9825 1.28679 66.1622 1.34158 64.6999C1.355 64.3401 1.35391 60.3946 4.85742 57.3595C7.78366 54.8245 12.5302 54.3146 23.0487 51.6079C26.4412 50.7346 27.5877 50.63 30.6119 51.3746Z" fill="#C56FFF"/>
<path fill-rule="evenodd" clip-rule="evenodd" d="M14.3726 47.0132C8.18048 48.5983 7.57563 48.6308 5.61562 47.9528C3.98469 47.3886 1.30336 45.5629 1.2649 41.3691C1.17673 31.7911 1.45103 29.953 1.59762 28.9718C1.99782 26.2914 2.65164 21.841 6.52379 15.6039C6.66239 15.3805 8.50485 12.6294 10.7305 10.4155C21.4336 -0.231144 34.3755 0.923912 35.7579 1.18744C39.2708 1.857 41.1837 4.84323 41.4892 5.31998C43.2794 8.11522 42.9964 9.68215 42.984 18.042C42.9677 29.1355 42.9187 29.473 42.7765 30.456C41.9402 36.2255 37.9378 40.9802 31.3995 42.8762C29.396 43.4572 16.9273 46.4774 14.3726 47.0132Z" fill="#6FE1F4"/>
<path fill-rule="evenodd" clip-rule="evenodd" d="M51.5323 3.29641C52.1894 2.66439 53.4023 1.3752 56.0706 1.06502C57.0785 0.947659 57.0785 1.03368 68.757 1.00343C70.5269 0.999052 89.0578 0.951304 90.8836 1.02092C93.7205 1.12954 96.1247 2.91588 97.0876 4.90561C98.5567 7.94251 97.5571 10.0744 96.9759 11.4463C93.23 20.2902 93.3022 20.335 91.9793 22.4173C91.242 23.5768 89.2751 25.3037 88.2491 25.8924C84.5801 27.9973 81.5428 27.9448 78.9156 27.9313C58.5106 27.8267 58.4257 28.1409 55.6921 27.1604C53.603 26.411 51.7373 24.6422 51.1419 23.7521C49.1249 20.7367 49.499 18.8133 49.4786 14.0334C49.4518 7.7486 49.1619 5.94804 51.5323 3.29641Z" fill="#8D9AF2"/>
<path fill-rule="evenodd" clip-rule="evenodd" d="M53.3468 130.131C52.1052 131.224 49.5418 133.55 44.8381 132.709C42.3657 132.267 39.4387 130.139 35.6479 127.904C35.3155 127.708 33.2706 126.712 31.8828 124.389C29.7526 120.825 31.2957 117.102 31.5366 116.52C32.1291 115.091 36.3057 107.426 36.5452 107.023C38.3078 104.056 40.9285 98.3492 42.6977 96.4691C45.6519 93.3298 49.7054 92.7146 52.0671 93.1232C53.0381 93.2908 54.2477 93.5 63.9988 96.1969C65.4103 96.5872 69.8172 97.333 70.6129 102.233C71.1684 105.653 68.9301 107.946 67.6341 109.868C66.7937 111.115 64.3595 114.535 64.3279 114.578C62.7601 116.704 57.1994 124.957 55.9966 126.617C55.3591 127.497 54.9135 128.366 53.3468 130.131Z" fill="#2EC3F2"/>
<path fill-rule="evenodd" clip-rule="evenodd" d="M100.89 107.129C101.097 107.416 102.479 108.879 102.27 111.365C102.146 112.85 101.105 114.255 100.367 115.39C96.4045 121.492 95.3486 122.413 94.7848 122.904C91.4729 125.793 86.9795 125.327 84.7209 125.323C72.9009 125.307 72.8092 125.573 71.3107 124.811C69.6583 123.97 67.8336 121.213 69.7059 118.189C69.872 117.92 70.2672 117.282 71.9402 114.941C71.9692 114.9 74.8577 110.683 75.7024 109.567C76.7622 108.167 81.0211 100.893 89.7636 103.115C90.1148 103.205 97.4991 105.229 97.7375 105.303C99.2542 105.772 100.151 106.391 100.89 107.129Z" fill="#9FD967"/>
<path fill-rule="evenodd" clip-rule="evenodd" d="M26.4483 135.211C27.0539 134.766 29.105 133.039 32.4445 133.717C33.4521 133.922 35.9128 135.209 36.8823 136.072C39.7523 138.627 39.5175 142.604 38.5502 144.473C37.543 146.418 36.0946 147.195 33.5471 149.605C29.9925 152.968 29.4645 154.26 27.691 154.914C25.1657 155.846 22.3432 154.677 21.5813 151.446C21.356 150.491 21.2101 150.428 23 143.779C24.4825 138.271 24.2909 137.195 26.4483 135.211Z" fill="#53D174"/>
</svg>
